<svg xmlns="http://www.w3.org/2000/svg" width="14.403" height="13.927" viewBox="0 0 14.403 13.927"><defs><style>.a{fill:#24cd63;}</style></defs><path class="a" d="M401.532,4757.652a6.931,6.931,0,0,1-7.07,6.784,7.267,7.267,0,0,1-3.418-.844l-3.915,1.2,1.276-3.64a6.545,6.545,0,0,1-1.014-3.5,7.076,7.076,0,0,1,14.141,0Zm-7.07-5.7a5.833,5.833,0,0,0-5.945,5.7A5.524,5.524,0,0,0,389.65,4761l-.742,2.118,2.284-.7a6.1,6.1,0,0,0,3.271.942,5.708,5.708,0,1,0,0-11.407Zm3.57,7.266c-.044-.069-.159-.111-.332-.194s-1.026-.486-1.185-.54-.275-.083-.39.082-.448.541-.549.652-.2.125-.375.042a4.776,4.776,0,0,1-1.394-.825,5.084,5.084,0,0,1-.964-1.152c-.1-.166-.01-.256.076-.338s.174-.195.26-.291a1.132,1.132,0,0,0,.173-.279.292.292,0,0,0-.015-.29c-.043-.083-.39-.9-.534-1.235s-.288-.277-.39-.277-.216-.014-.332-.014a.647.647,0,0,0-.462.208,1.836,1.836,0,0,0-.606,1.387,3.168,3.168,0,0,0,.707,1.719,6.991,6.991,0,0,0,2.961,2.51c1.762.667,1.762.444,2.08.416a1.75,1.75,0,0,0,1.17-.791,1.342,1.342,0,0,0,.1-.791Zm0,0Z" transform="translate(-387.13 -4750.868)"/></svg>