<svg xmlns="http://www.w3.org/2000/svg" xmlns:xlink="http://www.w3.org/1999/xlink" width="138.971" height="50" viewBox="0 0 138.971 50"><defs><style>.a{fill:none;}.b{clip-path:url(#a);}.c{fill:#0dbc4f;}.d{fill:#3a3a3a;}</style><clipPath id="a"><rect class="a" width="138.971" height="50"/></clipPath></defs><g class="b"><path class="c" d="M0,10.927V2.445H1.862v.94A2.444,2.444,0,0,1,3.9,2.326a2.837,2.837,0,0,1,1.11.223,2.952,2.952,0,0,1,.949.639A3.006,3.006,0,0,1,6.63,4.256,3.985,3.985,0,0,1,6.88,5.7v.024a4.074,4.074,0,0,1-.245,1.442A2.862,2.862,0,0,1,5.025,8.871,2.867,2.867,0,0,1,3.9,9.094a2.562,2.562,0,0,1-2.041-.969v2.8ZM2.3,4.4a1.837,1.837,0,0,0-.465,1.3v.024a1.836,1.836,0,0,0,.465,1.3,1.48,1.48,0,0,0,1.128.5,1.492,1.492,0,0,0,1.134-.5,1.835,1.835,0,0,0,.465-1.3V5.7a1.84,1.84,0,0,0-.465-1.3A1.52,1.52,0,0,0,2.3,4.4Zm131.213,3.78a3.255,3.255,0,0,1-.967-2.433V5.722a3.585,3.585,0,0,1,.409-1.7,3.166,3.166,0,0,1,1.155-1.234,3.126,3.126,0,0,1,1.677-.461,3.31,3.31,0,0,1,1.417.292,2.627,2.627,0,0,1,1,.791,3.613,3.613,0,0,1,.573,1.127,4.5,4.5,0,0,1,.194,1.335q0,.143-.024.488h-4.559a1.586,1.586,0,0,0,.558.952,1.654,1.654,0,0,0,1.047.327,2.09,2.09,0,0,0,.832-.158,2.734,2.734,0,0,0,.755-.515l1.062.94a3.26,3.26,0,0,1-2.679,1.219A3.362,3.362,0,0,1,133.511,8.178Zm1.337-3.994a1.849,1.849,0,0,0-.483,1.014h2.8a1.738,1.738,0,0,0-.444-1.011,1.239,1.239,0,0,0-.934-.375A1.267,1.267,0,0,0,134.847,4.184Zm-7.105,4.485a3.233,3.233,0,0,1-1.22-1.228,3.394,3.394,0,0,1-.436-1.7V5.722a3.405,3.405,0,0,1,.436-1.7,3.259,3.259,0,0,1,1.229-1.234,3.464,3.464,0,0,1,1.772-.461,3.7,3.7,0,0,1,1.51.277,3.244,3.244,0,0,1,1.1.818L131,4.639a2.715,2.715,0,0,0-.686-.541,1.711,1.711,0,0,0-.806-.178,1.44,1.44,0,0,0-1.137.52,1.856,1.856,0,0,0-.451,1.258v.024a1.864,1.864,0,0,0,.46,1.285,1.534,1.534,0,0,0,1.205.517,1.742,1.742,0,0,0,.788-.172,3.108,3.108,0,0,0,.716-.517l1.086,1.094a3.913,3.913,0,0,1-1.149.889,3.764,3.764,0,0,1-3.282-.149Zm-12.334-.491a3.255,3.255,0,0,1-.967-2.433V5.722a3.583,3.583,0,0,1,.409-1.7,3.167,3.167,0,0,1,1.155-1.234,3.127,3.127,0,0,1,1.677-.461,3.309,3.309,0,0,1,1.417.292,2.627,2.627,0,0,1,1,.791,3.615,3.615,0,0,1,.573,1.127,4.5,4.5,0,0,1,.194,1.335q0,.143-.024.488h-4.559a1.586,1.586,0,0,0,.558.952,1.655,1.655,0,0,0,1.047.327,2.091,2.091,0,0,0,.832-.158,2.734,2.734,0,0,0,.755-.515l1.062.94a3.26,3.26,0,0,1-2.679,1.219A3.363,3.363,0,0,1,115.408,8.178Zm1.337-3.994a1.848,1.848,0,0,0-.483,1.014h2.8a1.738,1.738,0,0,0-.444-1.011,1.24,1.24,0,0,0-.934-.375A1.267,1.267,0,0,0,116.745,4.184ZM86.68,8.672a3.3,3.3,0,0,1-1.725-2.926V5.722a3.273,3.273,0,0,1,.272-1.32,3.38,3.38,0,0,1,.74-1.083A3.439,3.439,0,0,1,87.1,2.593a3.74,3.74,0,0,1,1.414-.268,3.671,3.671,0,0,1,1.808.449A3.292,3.292,0,0,1,92.045,5.7v.024a3.3,3.3,0,0,1-.46,1.707,3.355,3.355,0,0,1-1.277,1.237,3.844,3.844,0,0,1-3.628.006Zm.573-4.238A1.815,1.815,0,0,0,86.787,5.7v.024a1.815,1.815,0,0,0,.486,1.273,1.607,1.607,0,0,0,1.238.529,1.585,1.585,0,0,0,1.235-.515,1.814,1.814,0,0,0,.466-1.264V5.722a1.816,1.816,0,0,0-.486-1.273,1.608,1.608,0,0,0-1.238-.529A1.585,1.585,0,0,0,87.253,4.434ZM80.345,8.669a3.233,3.233,0,0,1-1.22-1.228,3.394,3.394,0,0,1-.436-1.7V5.722a3.405,3.405,0,0,1,.436-1.7,3.259,3.259,0,0,1,1.229-1.234,3.465,3.465,0,0,1,1.772-.461,3.7,3.7,0,0,1,1.51.277,3.243,3.243,0,0,1,1.1.818L83.6,4.639a2.71,2.71,0,0,0-.686-.541,1.711,1.711,0,0,0-.806-.178,1.44,1.44,0,0,0-1.137.52A1.856,1.856,0,0,0,80.521,5.7v.024a1.864,1.864,0,0,0,.46,1.285,1.535,1.535,0,0,0,1.205.517,1.742,1.742,0,0,0,.788-.172,3.105,3.105,0,0,0,.716-.517l1.086,1.094a3.913,3.913,0,0,1-1.149.889,3.764,3.764,0,0,1-3.282-.149Zm-13.1-.491a3.254,3.254,0,0,1-.967-2.433V5.722a3.583,3.583,0,0,1,.409-1.7,3.166,3.166,0,0,1,1.155-1.234,3.126,3.126,0,0,1,1.677-.461,3.31,3.31,0,0,1,1.417.292,2.627,2.627,0,0,1,1,.791,3.615,3.615,0,0,1,.573,1.127,4.5,4.5,0,0,1,.194,1.335q0,.143-.024.488H68.123a1.586,1.586,0,0,0,.558.952,1.655,1.655,0,0,0,1.047.327,2.091,2.091,0,0,0,.832-.158,2.738,2.738,0,0,0,.755-.515l1.062.94A3.26,3.26,0,0,1,69.7,9.124,3.362,3.362,0,0,1,67.245,8.178Zm1.337-3.994A1.85,1.85,0,0,0,68.1,5.2h2.8a1.737,1.737,0,0,0-.445-1.011,1.239,1.239,0,0,0-.934-.375A1.266,1.266,0,0,0,68.582,4.184ZM34.932,8.672a3.3,3.3,0,0,1-1.725-2.926V5.722a3.275,3.275,0,0,1,.271-1.32,3.38,3.38,0,0,1,.74-1.083,3.438,3.438,0,0,1,1.131-.726,3.74,3.74,0,0,1,1.414-.268,3.671,3.671,0,0,1,1.808.449A3.292,3.292,0,0,1,40.3,5.7v.024a3.3,3.3,0,0,1-.46,1.707A3.355,3.355,0,0,1,38.56,8.666a3.844,3.844,0,0,1-3.628.006ZM35.5,4.434A1.816,1.816,0,0,0,35.039,5.7v.024a1.815,1.815,0,0,0,.486,1.273,1.607,1.607,0,0,0,1.238.529A1.585,1.585,0,0,0,38,7.01a1.815,1.815,0,0,0,.465-1.264V5.722a1.816,1.816,0,0,0-.486-1.273A1.608,1.608,0,0,0,36.74,3.92,1.585,1.585,0,0,0,35.5,4.434ZM57,8.565A1.793,1.793,0,0,1,56.355,7.1V7.078a1.817,1.817,0,0,1,.713-1.561,3.172,3.172,0,0,1,1.924-.526,4.871,4.871,0,0,1,1.6.268V5.151a1.111,1.111,0,0,0-.355-.889,1.563,1.563,0,0,0-1.047-.306,5.239,5.239,0,0,0-1.808.357L56.916,2.9A6.446,6.446,0,0,1,58.1,2.5a6.281,6.281,0,0,1,1.361-.131,3.015,3.015,0,0,1,2.214.732,2.819,2.819,0,0,1,.7,2.082V8.976h-1.8V8.268a2.543,2.543,0,0,1-1.975.827A2.441,2.441,0,0,1,57,8.565Zm1.495-2.23a.758.758,0,0,0-.34.666v.024a.686.686,0,0,0,.28.58,1.189,1.189,0,0,0,.734.211A1.639,1.639,0,0,0,60.213,7.5a1,1,0,0,0,.4-.824V6.347A2.746,2.746,0,0,0,59.435,6.1,1.655,1.655,0,0,0,58.492,6.335ZM22.324,8.565A1.794,1.794,0,0,1,21.683,7.1V7.078A1.817,1.817,0,0,1,22.4,5.517,3.173,3.173,0,0,1,24.32,4.99a4.87,4.87,0,0,1,1.6.268V5.151a1.111,1.111,0,0,0-.355-.889,1.564,1.564,0,0,0-1.047-.306,5.239,5.239,0,0,0-1.808.357L22.244,2.9A6.447,6.447,0,0,1,23.425,2.5a6.281,6.281,0,0,1,1.36-.131A3.015,3.015,0,0,1,27,3.1a2.819,2.819,0,0,1,.7,2.082V8.976h-1.8V8.268a2.543,2.543,0,0,1-1.975.827A2.442,2.442,0,0,1,22.324,8.565Zm1.495-2.23a.757.757,0,0,0-.34.666v.024a.686.686,0,0,0,.281.58,1.189,1.189,0,0,0,.734.211A1.639,1.639,0,0,0,25.541,7.5a1,1,0,0,0,.4-.824V6.347A2.747,2.747,0,0,0,24.762,6.1,1.655,1.655,0,0,0,23.819,6.335ZM10.68,8.565A1.793,1.793,0,0,1,10.038,7.1V7.078a1.817,1.817,0,0,1,.713-1.561,3.172,3.172,0,0,1,1.924-.526,4.87,4.87,0,0,1,1.6.268V5.151a1.111,1.111,0,0,0-.355-.889,1.563,1.563,0,0,0-1.047-.306,5.237,5.237,0,0,0-1.808.357L10.6,2.9A6.444,6.444,0,0,1,11.781,2.5a6.28,6.28,0,0,1,1.36-.131,3.015,3.015,0,0,1,2.214.732,2.819,2.819,0,0,1,.7,2.082V8.976h-1.8V8.268a2.544,2.544,0,0,1-1.975.827A2.441,2.441,0,0,1,10.68,8.565Zm1.495-2.23a.758.758,0,0,0-.34.666v.024a.686.686,0,0,0,.28.58,1.189,1.189,0,0,0,.734.211A1.639,1.639,0,0,0,13.9,7.5a1,1,0,0,0,.4-.824V6.347A2.746,2.746,0,0,0,13.118,6.1,1.656,1.656,0,0,0,12.175,6.335Zm5.77,2.3a1.954,1.954,0,0,1-.5-1.514V4.033h-.782V2.445h.782V.779h1.862V2.445h1.54V4.033h-1.54v2.79a.681.681,0,0,0,.143.476.591.591,0,0,0,.454.155,1.862,1.862,0,0,0,.919-.232V8.708a2.845,2.845,0,0,1-1.468.375A2.051,2.051,0,0,1,17.944,8.639Zm103.724.336V2.445h1.862V3.759a2.033,2.033,0,0,1,2.089-1.434V4.259h-.1a1.873,1.873,0,0,0-1.468.577,2.507,2.507,0,0,0-.519,1.725V8.976Zm-9.963,0V5.335a1.526,1.526,0,0,0-.28-.993A.986.986,0,0,0,110.619,4a1.034,1.034,0,0,0-.827.342,1.474,1.474,0,0,0-.3.99v3.64h-1.862V5.335a1.526,1.526,0,0,0-.28-.993A.986.986,0,0,0,106.549,4a1.033,1.033,0,0,0-.827.342,1.473,1.473,0,0,0-.3.99v3.64h-1.862V2.445h1.862v.928a3.232,3.232,0,0,1,.833-.767,2.037,2.037,0,0,1,1.095-.28,2.228,2.228,0,0,1,1.113.268,1.807,1.807,0,0,1,.731.767,2.731,2.731,0,0,1,2.154-1.035,2.14,2.14,0,0,1,1.629.616,2.49,2.49,0,0,1,.585,1.781V8.976Zm-10.809,0V5.335a1.526,1.526,0,0,0-.28-.993A.987.987,0,0,0,99.81,4a1.033,1.033,0,0,0-.827.342,1.473,1.473,0,0,0-.3.99v3.64H96.826V5.335a1.525,1.525,0,0,0-.28-.993A.986.986,0,0,0,95.74,4a1.033,1.033,0,0,0-.826.342,1.474,1.474,0,0,0-.3.99v3.64H92.756V2.445h1.862v.928a3.23,3.23,0,0,1,.832-.767,2.037,2.037,0,0,1,1.095-.28,2.228,2.228,0,0,1,1.113.268,1.807,1.807,0,0,1,.731.767,2.731,2.731,0,0,1,2.154-1.035,2.139,2.139,0,0,1,1.629.616,2.49,2.49,0,0,1,.585,1.781V8.976Zm-47.014,0V5.335a1.526,1.526,0,0,0-.28-.993A.987.987,0,0,0,52.8,4a1.033,1.033,0,0,0-.827.342,1.473,1.473,0,0,0-.3.99v3.64H49.812V5.335a1.526,1.526,0,0,0-.28-.993A.986.986,0,0,0,48.726,4a1.033,1.033,0,0,0-.827.342,1.473,1.473,0,0,0-.3.99v3.64H45.742V2.445H47.6v.928a3.23,3.23,0,0,1,.832-.767,2.037,2.037,0,0,1,1.095-.28,2.228,2.228,0,0,1,1.113.268,1.806,1.806,0,0,1,.731.767A2.731,2.731,0,0,1,53.53,2.326a2.14,2.14,0,0,1,1.629.616,2.49,2.49,0,0,1,.585,1.781V8.976Zm-12.874,0V2.445H42.87V3.759a2.033,2.033,0,0,1,2.089-1.434V4.259h-.1a1.873,1.873,0,0,0-1.468.577,2.507,2.507,0,0,0-.519,1.725V8.976Zm-11.705,0V4.033h-.776V2.51H29.3V2.094A2.147,2.147,0,0,1,29.828.511,2.034,2.034,0,0,1,31.326,0a4.423,4.423,0,0,1,1.325.178V1.713a2.528,2.528,0,0,0-.847-.155q-.668,0-.668.708v.256h1.5V4.033h-1.48V8.976Zm-21.729,0V.083H9.43V8.976ZM73.859,6.09V4.312h3.766V6.09Z" transform="translate(0 39.073)"/><path class="d" d="M136.474,31.566a2.377,2.377,0,0,1-1.741-.728A2.264,2.264,0,0,1,134,29.119V18.058a4.829,4.829,0,1,0-9.658,0V29.119a2.264,2.264,0,0,1-.729,1.719,2.355,2.355,0,0,1-1.721.728h-.061a2.355,2.355,0,0,1-1.721-.728,2.265,2.265,0,0,1-.729-1.719V18.058a9.421,9.421,0,0,1,2.875-6.916,9.76,9.76,0,0,1,13.828,0,9.422,9.422,0,0,1,2.875,6.916V29.119a2.488,2.488,0,0,1-2.45,2.447Zm-22.594,0a2.378,2.378,0,0,1-1.741-.728,2.265,2.265,0,0,1-.729-1.719V10.738a2.487,2.487,0,0,1,2.47-2.467h.041A2.271,2.271,0,0,1,115.641,9a2.371,2.371,0,0,1,.729,1.739V29.119a2.488,2.488,0,0,1-2.45,2.447ZM94.335,29.22,86.8,11.688a2.6,2.6,0,0,1-.2-.971,2.4,2.4,0,0,1,.425-1.335A2.312,2.312,0,0,1,89.071,8.27h.061a2.255,2.255,0,0,1,2.247,1.5q4.839,11.3,5.588,13.023,0,.081.81,1.921L104.2,9.767a2.291,2.291,0,0,1,2.268-1.5h.04a2.312,2.312,0,0,1,2.045,1.112,2.306,2.306,0,0,1,.425,1.314,2.448,2.448,0,0,1-.223.991L101.239,29.22a3.713,3.713,0,0,1-6.9,0ZM31.5,31.566a2.488,2.488,0,0,1-2.45-2.447V18a4.767,4.767,0,0,0-4.8-4.772A4.767,4.767,0,0,0,19.477,18V29.119a2.488,2.488,0,0,1-2.45,2.447h-.04a2.378,2.378,0,0,1-1.741-.728,2.265,2.265,0,0,1-.729-1.719V18a4.6,4.6,0,0,0-1.4-3.377,4.609,4.609,0,0,0-3.381-1.4,4.608,4.608,0,0,0-3.381,1.4A4.6,4.6,0,0,0,4.96,18V29.119a2.264,2.264,0,0,1-.729,1.719,2.355,2.355,0,0,1-1.721.728H2.45a2.354,2.354,0,0,1-1.721-.728A2.264,2.264,0,0,1,0,29.119V18a9.407,9.407,0,0,1,2.855-6.875A9.387,9.387,0,0,1,9.739,8.27q4.818,0,7.269,3.195,2.43-3.195,7.248-3.195a9.388,9.388,0,0,1,6.884,2.851A9.407,9.407,0,0,1,33.994,18V29.119a2.339,2.339,0,0,1-.709,1.719,2.378,2.378,0,0,1-1.741.728ZM111.9,4.813a2.725,2.725,0,0,1-.83-2A2.7,2.7,0,0,1,111.9.829a2.813,2.813,0,0,1,3.989,0,2.63,2.63,0,0,1,.85,1.982,2.651,2.651,0,0,1-.85,2,2.813,2.813,0,0,1-3.989,0Z" transform="translate(0.004)"/><path class="c" d="M31.689,22.6A13.764,13.764,0,0,1,26.5,18.037c-1.079-2.165,1.718-5.026,4.029-2.763.532.545,1.534,1.581,2.373,2.307a6.645,6.645,0,0,0,1.2.828,7.336,7.336,0,0,0,1.862.637c-.187-.038-.042.023.327.083a7.277,7.277,0,0,0,6.162-1.8,7.494,7.494,0,0,0,2.431-5.377,7.415,7.415,0,0,0-2.351-5.28,6.058,6.058,0,0,0-5.936-1.6,9.842,9.842,0,0,0-4.378,2.472c-.383.375-1.544,1.63-1.824,1.933-.314.39-2.051,2.536-4.211,4.991-1.4,1.594-2.983,3.318-4.469,4.776a15.328,15.328,0,0,1-4.4,3.375A13.275,13.275,0,0,1,11.49,24a10.718,10.718,0,0,1-5.712-1.733,11.639,11.639,0,0,1-3.123-2.893,12.222,12.222,0,0,1-2-3.636A11.72,11.72,0,0,1,2.3,4.936,11.49,11.49,0,0,1,6.737,1.291,14.183,14.183,0,0,1,11.839,0,13.548,13.548,0,0,1,23.28,6.009c1.079,2.169-1.718,5.034-4.028,2.767-.531-.546-1.534-1.583-2.372-2.31a6.656,6.656,0,0,0-1.2-.829A7.331,7.331,0,0,0,13.817,5c.187.038.042-.023-.327-.084A7.266,7.266,0,0,0,7.328,6.721,7.512,7.512,0,0,0,4.9,12.106a7.432,7.432,0,0,0,2.351,5.288A6.051,6.051,0,0,0,13.182,19a9.834,9.834,0,0,0,4.377-2.476c1.016-1,3.286-3.547,5.323-5.872,2.088-2.383,3.931-4.53,3.931-4.53l.023.02c.235-.262.863-.957,1.226-1.313a15.323,15.323,0,0,1,4.4-3.369A13.293,13.293,0,0,1,38.294.079a10.733,10.733,0,0,1,5.713,1.73A11.629,11.629,0,0,1,47.131,4.7a12.2,12.2,0,0,1,2,3.63,11.685,11.685,0,0,1-1.65,10.781,11.486,11.486,0,0,1-4.435,3.639,14.2,14.2,0,0,1-5.1,1.289A13.785,13.785,0,0,1,31.689,22.6Z" transform="translate(36.658 8.19)"/></g></svg>