<svg xmlns="http://www.w3.org/2000/svg" width="23.817" height="27.481" viewBox="0 0 23.817 27.481"><path d="M2023.5,34.481a5.5,5.5,0,0,1-5.5-5.5l1.832-13.741a1.834,1.834,0,0,1,1.832-1.832h2.825a5.5,5.5,0,1,1,10.84,0h2.824a1.834,1.834,0,0,1,1.832,1.832l1.832,13.741a5.5,5.5,0,0,1-5.5,5.5Zm-1.833-18.321-1.832,12.694c0,2.525,1.27,3.795,3.8,3.795h12.563c2.525,0,3.795-1.269,3.795-3.795l-1.832-12.694a.917.917,0,0,0-.916-.916H2022.58A.917.917,0,0,0,2021.664,16.16Zm11.793-2.748a3.664,3.664,0,1,0-7.1,0Z" transform="translate(-2018 -7)"/></svg>